<?xml version="1.0" encoding="utf-8"?>
<!-- Generator: Adobe Illustrator 24.0.3, SVG Export Plug-In . SVG Version: 6.00 Build 0)  -->
<svg version="1.1" id="Capa_1" xmlns="http://www.w3.org/2000/svg" xmlns:xlink="http://www.w3.org/1999/xlink" x="0px" y="0px"
	 viewBox="0 0 439.83 487.68" style="enable-background:new 0 0 439.83 487.68;" xml:space="preserve">
<style type="text/css">
	.st0{opacity:0.5;fill:url(#SVGID_1_);}
	.st1{fill:url(#SVGID_2_);}
	.st2{fill:#FFFFFF;}
	.st3{fill:#F4A500;}
	.st4{fill:#ECC26F;}
	.st5{enable-background:new    ;}
	.st6{fill:#EBEDED;}
	.st7{fill:#FF006F;}
	.st8{fill:#E4DA00;}
	.st9{opacity:0.5;}
	.st10{fill:url(#SVGID_3_);}
	.st11{fill:url(#SVGID_4_);}
	.st12{fill:url(#SVGID_5_);}
	.st13{fill:url(#SVGID_6_);}
	.st14{fill:url(#SVGID_7_);}
	.st15{fill:url(#SVGID_8_);}
	.st16{fill:url(#SVGID_9_);}
	.st17{fill:url(#SVGID_10_);}
	.st18{fill:url(#SVGID_11_);}
	.st19{fill:url(#SVGID_12_);}
	.st20{fill:#00208E;}
	.st21{fill:#4F72FB;}
	.st22{fill:#00114A;}
	.st23{fill:#395DE4;}
	.st24{fill:#7B0031;}
	.st25{fill:#FF3698;}
	.st26{fill:#56002A;}
	.st27{opacity:0.25;}
	.st28{opacity:0.1;}
	.st29{opacity:0.5;fill:url(#SVGID_13_);}
	.st30{clip-path:url(#SVGID_15_);fill:#292929;}
	.st31{fill:#1B1B1B;}
	.st32{fill:url(#SVGID_16_);}
	.st33{fill:#1C1C1C;}
	.st34{fill:#292929;}
	.st35{fill:url(#SVGID_17_);}
	.st36{fill:#D7D7D7;}
	.st37{fill:#AA0046;}
	.st38{opacity:0.43;}
	.st39{fill:#6914FC;}
	.st40{fill:#C4A2FA;}
	.st41{fill:none;stroke:url(#SVGID_18_);stroke-width:2;stroke-miterlimit:10;}
	.st42{fill:url(#SVGID_19_);}
	.st43{opacity:0.53;}
	.st44{fill:#3EB2FA;}
	.st45{fill:url(#SVGID_20_);}
	.st46{fill:#000314;}
	.st47{fill:#FFB587;}
	.st48{fill:#001747;}
	.st49{fill:#003B9A;}
	.st50{fill:#E3E5E9;}
	.st51{fill:#B3B3B7;}
	.st52{fill:#FAFBFF;}
	.st53{fill:#FF3D99;}
</style>
<g>
	<g>
		<linearGradient id="SVGID_1_" gradientUnits="userSpaceOnUse" x1="-5.0532" y1="257.2576" x2="174.9748" y2="161.2006">
			<stop  offset="0.0245" style="stop-color:#FFFFFF"/>
			<stop  offset="0.9807" style="stop-color:#FFFFFF;stop-opacity:0"/>
		</linearGradient>
		<path class="st0" d="M205.21,80.7L7.74,194.71c-3.65,2.11-6.6,7.22-6.59,11.41l0.3,104.71c0.01,4.2,2.98,5.89,6.63,3.78
			L205.21,200.8V80.7z"/>
		<g>
			<linearGradient id="SVGID_2_" gradientUnits="userSpaceOnUse" x1="-56.5634" y1="273.3881" x2="179.168" y2="192.2238">
				<stop  offset="0" style="stop-color:#3EB2FA"/>
				<stop  offset="0.1613" style="stop-color:#3EAEF7"/>
				<stop  offset="0.3138" style="stop-color:#3EA2F0"/>
				<stop  offset="0.4627" style="stop-color:#3D8FE5"/>
				<stop  offset="0.6095" style="stop-color:#3C74D4"/>
				<stop  offset="0.7547" style="stop-color:#3B52BF"/>
				<stop  offset="0.8968" style="stop-color:#3A28A6"/>
				<stop  offset="1" style="stop-color:#380590"/>
			</linearGradient>
			<path class="st1" d="M177.48,121.8c-0.01-4.2-2.98-5.89-6.63-3.78L24.41,202.56c-3.65,2.11-6.6,7.22-6.59,11.41l0.3,104.71
				c0.01,4.2,2.98,5.89,6.63,3.78l146.43-84.54c3.65-2.11,6.6-7.22,6.59-11.41L177.48,121.8z"/>
			<g>
				<g>
					<path class="st2" d="M118.6,164.61l1.7-0.98l-1.99,12.79l-1.62,0.93l0.15-0.95c-0.62,0.97-1.41,1.78-2.35,2.33
						c-1.8,1.04-3.22,0.49-3.22-1.83c-0.01-2.85,1.75-5.91,4.08-7.25c1.13-0.65,2-0.71,2.48-0.13L118.6,164.61z M114.92,176.81
						c1.45-0.84,2.49-2.73,2.49-4.57c0-1.31-0.7-1.7-1.93-0.99c-1.45,0.83-2.49,2.73-2.49,4.57
						C112.99,177.12,113.69,177.52,114.92,176.81"/>
				</g>
				<g>
					<path class="st2" d="M109.36,220.17c2.74-1.58,4.3-0.35,4.31,3.39c0.01,4.01-1.95,7.3-4.82,8.95
						c-0.96,0.55-1.89,0.87-2.55,0.78l0.56-1.63c0.54,0.09,1.22-0.15,1.97-0.59c2.08-1.2,3.39-3.45,3.38-6.39l0-0.42
						c-0.6,1.37-1.68,2.51-2.95,3.25c-2.03,1.17-3.5,0.63-3.5-1.54C105.75,223.71,107.33,221.34,109.36,220.17z M109.51,226.01
						c1.4-0.81,2.36-2.36,2.36-3.64c0-1.21-0.85-1.79-2.45-0.87c-1.33,0.77-2.25,2.2-2.25,3.59
						C107.18,226.47,108.07,226.84,109.51,226.01"/>
				</g>
				<g>
					<polygon class="st2" points="118.18,215.22 118.22,226.97 116.77,227.81 116.74,217.51 114.44,218.84 114.43,217.39 					"/>
				</g>
				<g>
					<polygon class="st2" points="156.42,193.14 156.46,204.89 155,205.74 154.97,195.44 152.67,196.77 152.67,195.31 					"/>
				</g>
				<g>
					<path class="st2" d="M165.24,188.05l0,1.14l-2.66,5.33c2.04-0.95,3.08-0.22,3.09,1.59c0.01,1.97-1.26,4.33-3.86,5.83
						c-1.46,0.85-2.9,1.14-3.76,0.74l0.66-1.71c0.69,0.34,1.83,0.19,3.09-0.53c1.53-0.88,2.4-2.19,2.4-3.47
						c0-1.24-0.78-1.61-2.53-0.59l-0.82,0.47l0-1.17l2.56-5.12l-4.93,2.85l0-1.46L165.24,188.05z"/>
				</g>
				<g>
					<path class="st3" d="M152.36,220.14c2.52,0.7,4.15,3.21,4.14,7.09c0,0.06,0,0.12,0,0.19c-0.06,3.99-1.82,8.44-4.45,12.03
						c-2.48-0.69-4.1-3.14-4.13-6.92c0-0.12,0-0.25,0-0.37C147.98,228.17,149.73,223.73,152.36,220.14z"/>
				</g>
				<g>
					<path class="st4" d="M39.49,204.81l0.01,3.63l-12.78,7.38c0.18-2.14,1.68-4.6,3.48-5.64L39.49,204.81z"/>
				</g>
				<g>
					<path class="st2" d="M93.49,179.61c1.63-0.94,2.96-1.07,3.63-0.27l-1.27,1.98c-0.53-0.53-1.35-0.51-2.47,0.14
						c-2.44,1.41-3.96,4.4-3.95,6.97c0.01,1.81,1.04,2.43,2.99,1.3c1.07-0.62,1.99-1.56,2.71-2.83l1.04,0.68
						c-0.92,1.76-2.3,3.11-3.87,4.02c-2.9,1.68-4.64,0.76-4.65-2C87.62,185.89,89.95,181.66,93.49,179.61z"/>
				</g>
				<g>
					<path class="st2" d="M102.84,176.87l-0.3,2.05c-0.15,0.05-0.26,0.11-0.42,0.2c-1.33,0.77-2.22,2.06-2.52,3.97l-0.71,4.54
						l-1.7,0.98l1.42-9.2l1.62-0.93l-0.18,1.19C100.7,178.41,101.61,177.58,102.84,176.87z"/>
				</g>
				<g>
					<path class="st2" d="M110.38,176.2c0,0.42-0.04,0.85-0.11,1.25l-5.78,3.33c0.03,1.32,0.7,1.65,2.11,0.84
						c0.83-0.48,1.59-1.23,2.09-2.07l0.72,0.96c-0.77,1.22-1.87,2.23-2.98,2.88c-2.2,1.27-3.59,0.61-3.6-1.61
						c-0.01-2.84,1.74-5.9,4.18-7.31C109.03,173.3,110.37,173.91,110.38,176.2z M104.64,179.41l4.17-2.41
						c0.02-1.3-0.74-1.57-1.87-0.92C105.78,176.75,104.94,178,104.64,179.41"/>
				</g>
				<g>
					<path class="st2" d="M123.35,161.4c0.61-0.35,1.03-0.13,1.03,0.46c0,0.77-0.47,1.57-1.16,1.97c-0.61,0.35-1.02,0.09-1.02-0.5
						C122.2,162.61,122.66,161.8,123.35,161.4z"/>
				</g>
				<g>
					<polygon class="st2" points="120.56,175.12 121.98,165.92 123.69,164.93 122.27,174.13 					"/>
				</g>
				<g>
					<path class="st2" d="M128.17,160.5l-0.33,2.11l1.96-1.13l-0.27,1.72l-1.96,1.13l-0.67,4.32c-0.01,0.13-0.03,0.26-0.03,0.38
						c0,0.57,0.27,0.79,0.87,0.44c0.33-0.19,0.67-0.5,0.95-0.88l0.3,1.27c-0.52,0.68-1.15,1.16-1.75,1.51
						c-1.24,0.72-2.09,0.37-2.09-1.03c0-0.2,0.01-0.44,0.05-0.69l0.68-4.35l-1.19,0.69l0.28-1.73l1.18-0.68l0.32-2.1L128.17,160.5z"
						/>
				</g>
				<g>
					<path class="st2" d="M140.25,152.62c1.63-0.94,2.96-1.07,3.63-0.27l-1.28,1.98c-0.52-0.53-1.34-0.51-2.46,0.14
						c-2.44,1.41-3.97,4.41-3.96,6.98c0.01,1.81,1.05,2.42,3,1.3c1.07-0.62,1.99-1.56,2.71-2.83l1.04,0.68
						c-0.92,1.76-2.3,3.11-3.87,4.02c-2.9,1.68-4.64,0.76-4.65-2C134.38,158.89,136.7,154.67,140.25,152.62z"/>
				</g>
				<g>
					<path class="st2" d="M150.5,149.45l1.7-0.98l-1.42,9.2l-1.62,0.93l0.15-0.95c-0.62,0.98-1.42,1.79-2.37,2.34
						c-1.78,1.03-3.21,0.49-3.21-1.83c-0.01-2.85,1.76-5.91,4.09-7.26c1.13-0.65,1.99-0.71,2.48-0.09L150.5,149.45z M147.38,158.07
						c1.44-0.83,2.5-2.73,2.5-4.58c0-1.31-0.7-1.7-1.93-0.99c-1.45,0.83-2.5,2.73-2.5,4.58
						C145.45,158.38,146.15,158.78,147.38,158.07"/>
				</g>
				<g>
					<path class="st2" d="M166,137.24l1.7-0.98l-1.99,12.79l-1.62,0.93l0.15-0.95c-0.62,0.97-1.41,1.78-2.35,2.33
						c-1.8,1.04-3.21,0.49-3.21-1.83c-0.01-2.85,1.74-5.9,4.07-7.25c1.13-0.65,2-0.71,2.48-0.13L166,137.24z M162.32,149.44
						c1.45-0.83,2.49-2.73,2.49-4.57c0-1.31-0.7-1.7-1.93-0.99c-1.45,0.83-2.49,2.73-2.49,4.57
						C160.39,149.76,161.09,150.15,162.32,149.44"/>
				</g>
				<g class="st5">
					<g>
						<path class="st2" d="M88.11,237.21c2.04-1.18,3.52-0.64,3.52,1.53c0.01,2.27-1.59,4.63-3.61,5.8
							c-2.75,1.59-4.31,0.37-4.32-3.38c-0.01-4.01,1.96-7.32,4.83-8.97c0.96-0.55,1.88-0.86,2.54-0.77l-0.55,1.64
							c-0.53-0.11-1.22,0.14-1.96,0.57c-2.08,1.2-3.4,3.47-3.4,6.4c0,0.14,0,0.27,0.02,0.41C85.77,239.1,86.85,237.94,88.11,237.21z
							 M87.96,243.22c1.32-0.76,2.26-2.2,2.26-3.59c0-1.38-0.91-1.75-2.34-0.92c-1.39,0.8-2.35,2.35-2.35,3.65
							C85.53,243.57,86.38,244.13,87.96,243.22"/>
					</g>
					<g>
						<path class="st4" d="M40.32,226.85l-0.01-3.63l12.73-7.35c-0.17,2.14-1.68,4.6-3.48,5.64L40.32,226.85z"/>
					</g>
					<g>
						<path class="st4" d="M43.42,215.69c0.46-0.88,0.57-1.6,0.6-2.03l9.02-5.21l0.02,6.6l-12.74,7.36l-0.01-3.54
							C41.74,217.97,42.79,216.89,43.42,215.69z"/>
					</g>
					<g>
						<path class="st4" d="M26.76,231.05l12.85-7.42l0.01,3.63l-9.35,5.4C28.46,233.7,26.95,232.97,26.76,231.05z"/>
					</g>
					<g>
						<polygon class="st4" points="39.51,209.25 39.52,212.71 26.72,220.1 26.71,216.64 						"/>
					</g>
					<g>
						<path class="st6" d="M40.2,204.41l0.01,3.63l12.78-7.38l0.02,0.8l-12.8,7.39l0.01,3.45c1.3-0.74,3.29-1.31,3.73,0.6l9.08-5.24
							l0,0.8l-9.02,5.21c-0.03,0.43-0.14,1.15-0.6,2.03c-0.63,1.19-1.68,2.28-3.12,3.19l0.01,3.54l12.74-7.36l0,0.81l-12.74,7.36
							l0.01,3.63l-0.69,0.4l-0.01-3.63l-12.85,7.42l-0.02-0.4l0-0.4l12.87-7.43l-0.01-3.53l-12.87,7.43l0-0.81l13.21-7.63
							c1.41-0.82,2.39-1.77,2.94-2.81c0.51-0.97,0.43-1.7,0.43-1.71c-0.23-2.15-2.47-1.02-3.19-0.6c-0.12,0.07-0.2,0.12-0.22,0.13
							l-0.38,0.25l-12.8,7.36l0-0.8l12.8-7.39l-0.01-3.46l-12.8,7.39l0-0.4l0-0.41l12.8-7.39l-0.01-3.63L40.2,204.41z"/>
					</g>
					<g>
						<path class="st2" d="M98.97,231.91c1.18-0.16,1.82,0.45,1.82,1.79c0.01,2.14-1.57,4.37-4.07,5.82
							c-2.48,1.43-4.05,1.01-4.06-1.13c0-1.34,0.64-2.71,1.79-3.87c-0.93,0.04-1.43-0.55-1.43-1.71c-0.01-1.96,1.47-4.05,3.67-5.32
							c2.23-1.29,3.72-0.92,3.73,1.05C100.43,229.7,99.91,230.87,98.97,231.91z M96.72,238.16c1.62-0.94,2.62-2.34,2.61-3.66
							c0-1.29-1-1.53-2.63-0.59c-1.62,0.94-2.58,2.3-2.58,3.6C94.14,238.82,95.1,239.1,96.72,238.16 M96.7,228.85
							c-1.37,0.79-2.23,2.01-2.23,3.19c0,1.17,0.84,1.41,2.24,0.6c1.42-0.82,2.28-2.04,2.28-3.21
							C98.98,228.25,98.08,228.05,96.7,228.85"/>
					</g>
					<g>
						<path class="st4" d="M40.21,208.84l12.8-7.39l0.02,6.2l-9.08,5.24c-0.44-1.92-2.43-1.34-3.73-0.6L40.21,208.84z"/>
					</g>
					<g>
						<path class="st4" d="M49.49,199.04c1.81-1.04,3.32-0.32,3.5,1.61l-12.78,7.38l-0.01-3.63L49.49,199.04z"/>
					</g>
					<g>
						<polygon class="st4" points="39.6,219.29 39.61,222.82 26.74,230.25 26.73,226.72 						"/>
					</g>
					<g>
						<path class="st4" d="M42.88,215.47c-0.54,1.04-1.53,1.98-2.94,2.81l-13.21,7.63l-0.01-5.01l12.8-7.39l0.38-0.22
							c0.02-0.01,0.1-0.06,0.22-0.13c0.73-0.42,2.96-1.54,3.19,0.6C43.31,213.78,43.39,214.5,42.88,215.47z"/>
					</g>
				</g>
				<g>
					<polygon class="st2" points="32.85,264.49 32.89,276.24 31.44,277.07 31.41,266.78 29.1,268.11 29.1,266.66 					"/>
				</g>
				<g>
					<path class="st2" d="M38.33,261.19c2.14-1.24,3.52-0.77,3.52,1.25c0,1.14-0.28,2.34-1.67,4.66l-3.12,5.27l5.25-3.03l0,1.46
						l-7.35,4.25l0-1.13l4.15-7.02c1.09-1.85,1.28-2.7,1.28-3.43c0-1.22-0.75-1.52-2.18-0.7c-1.09,0.63-1.98,1.54-2.61,2.78l-1-0.42
						C35.38,263.55,36.74,262.1,38.33,261.19z"/>
				</g>
				<g>
					<path class="st2" d="M50.07,254.55l0,1.14l-2.67,5.33c2.05-0.96,3.08-0.22,3.09,1.59c0.01,1.97-1.26,4.33-3.86,5.83
						c-1.46,0.85-2.89,1.13-3.76,0.74l0.67-1.72c0.69,0.34,1.83,0.2,3.08-0.53c1.53-0.88,2.41-2.19,2.41-3.48
						c0-1.24-0.79-1.6-2.54-0.59l-0.82,0.47l0-1.17l2.56-5.12l-4.92,2.84l0-1.46L50.07,254.55z"/>
				</g>
				<g>
					<polygon class="st2" points="58.49,249.68 53.5,260 57.43,257.73 57.42,255.18 58.8,254.38 58.8,256.94 60.75,255.82 
						60.75,257.26 58.81,258.39 58.81,261.27 57.4,262.09 57.39,259.21 51.71,262.49 51.7,261.31 56.91,250.6 					"/>
				</g>
				<g>
					<path class="st2" d="M72.14,241.81l0,1.46l-4.55,2.62l-0.26,3.38l1.14-0.66c3.05-1.76,4.26-0.99,4.26,1.09
						c0.01,2.03-1.25,4.38-3.87,5.9c-1.45,0.84-2.88,1.12-3.75,0.74l0.66-1.71c0.69,0.34,1.83,0.19,3.07-0.52
						c1.55-0.89,2.42-2.22,2.42-3.49c0-1.33-0.73-1.73-3.11-0.36l-2.32,1.34l0.52-6.46L72.14,241.81z"/>
				</g>
				<g>
					<polygon class="st2" points="80.58,236.93 75.59,247.25 79.52,244.98 79.51,242.42 80.89,241.63 80.9,244.18 82.84,243.06 
						82.85,244.51 80.9,245.63 80.91,248.51 79.49,249.33 79.49,246.45 73.8,249.73 73.79,248.56 79,237.84 					"/>
				</g>
				<g>
					<path class="st2" d="M124.6,211.37c2.38-1.37,4.17-0.21,4.18,3.62c0.01,3.82-1.77,7.04-4.14,8.41
						c-2.4,1.39-4.19,0.23-4.21-3.59C120.42,215.98,122.2,212.76,124.6,211.37z M124.63,221.91c1.59-0.92,2.69-3.07,2.68-6.07
						c-0.01-3.01-1.12-3.88-2.71-2.97c-1.62,0.93-2.72,3.08-2.71,6.09C121.91,221.97,123.02,222.84,124.63,221.91"/>
				</g>
				<g>
					<polygon class="st2" points="133.29,206.5 133.33,218.25 131.88,219.08 131.85,208.79 129.54,210.12 129.54,208.67 					"/>
				</g>
				<g>
					<polygon class="st2" points="142.63,201.11 142.66,212.86 141.21,213.69 141.19,203.4 138.88,204.73 138.87,203.28 					"/>
				</g>
				<g>
					<path class="st7" d="M146.25,221.34c0.08-0.05,0.16-0.09,0.24-0.14c2.21-1.22,4.23-1.52,5.87-1.06
						c-2.63,3.58-4.38,8.03-4.44,12.01c0,0.12,0,0.25,0,0.37c0.03,3.78,1.65,6.23,4.13,6.92c-1.63,2.22-3.6,4.1-5.72,5.33
						c-0.07,0.04-0.15,0.08-0.22,0.13c-5.64,3.11-10.11,0.33-10.01-6.22C136.2,232.23,140.73,224.53,146.25,221.34z"/>
				</g>
				<g>
					<path class="st8" d="M158.08,214.81c0.07-0.04,0.15-0.08,0.22-0.12c5.64-3.1,10.12-0.33,10.01,6.22
						c-0.1,6.46-4.63,14.16-10.17,17.35c-0.07,0.04-0.15,0.09-0.23,0.13c-2.2,1.21-4.22,1.52-5.87,1.06
						c2.63-3.58,4.39-8.04,4.45-12.03c0-0.06,0-0.12,0-0.19c0.01-3.88-1.62-6.38-4.14-7.09C154,217.91,155.97,216.03,158.08,214.81z
						"/>
				</g>
				<g>
					<path class="st2" d="M148.1,197.81c2.14-1.24,3.52-0.77,3.52,1.25c0,1.14-0.28,2.34-1.67,4.66l-3.12,5.27l5.25-3.03l0,1.46
						l-7.35,4.25l0-1.13l4.15-7.02c1.09-1.85,1.28-2.7,1.28-3.43c0-1.22-0.75-1.52-2.18-0.7c-1.09,0.63-1.98,1.54-2.61,2.78l-1-0.42
						C145.16,200.17,146.52,198.72,148.1,197.81z"/>
				</g>
				<g>
					<path class="st2" d="M158.68,144.64l-0.3,2.05c-0.15,0.05-0.26,0.11-0.42,0.2c-1.33,0.77-2.22,2.06-2.52,3.97l-0.71,4.54
						l-1.7,0.98l1.42-9.2l1.62-0.94l-0.19,1.19C156.53,146.18,157.45,145.34,158.68,144.64z"/>
				</g>
			</g>
		</g>
		<g class="st9">
			<g>
				<linearGradient id="SVGID_3_" gradientUnits="userSpaceOnUse" x1="-19.1042" y1="172.0335" x2="173.4074" y2="68.618">
					<stop  offset="0.0245" style="stop-color:#FFFFFF"/>
					<stop  offset="0.9807" style="stop-color:#FFFFFF;stop-opacity:0"/>
				</linearGradient>
				<polygon class="st10" points="31.6,125.31 48.58,134.99 31.71,164.22 31.69,155.57 41.06,139.33 31.63,133.95 				"/>
			</g>
			<g>
				<linearGradient id="SVGID_4_" gradientUnits="userSpaceOnUse" x1="-18.8398" y1="172.5262" x2="173.6724" y2="69.1104">
					<stop  offset="0.0245" style="stop-color:#FFFFFF"/>
					<stop  offset="0.9807" style="stop-color:#FFFFFF;stop-opacity:0"/>
				</linearGradient>
				<polygon class="st11" points="15.8,134.44 32.78,144.11 15.91,173.34 15.88,164.69 25.26,148.45 15.82,143.08 				"/>
			</g>
			<g>
				<linearGradient id="SVGID_5_" gradientUnits="userSpaceOnUse" x1="-18.5752" y1="173.0185" x2="173.937" y2="69.6027">
					<stop  offset="0.0245" style="stop-color:#FFFFFF"/>
					<stop  offset="0.9807" style="stop-color:#FFFFFF;stop-opacity:0"/>
				</linearGradient>
				<polygon class="st12" points="0,143.56 16.98,153.23 0.11,182.46 0.09,173.81 9.46,157.57 0.02,152.2 				"/>
			</g>
			<g>
				<linearGradient id="SVGID_6_" gradientUnits="userSpaceOnUse" x1="-19.369" y1="171.5414" x2="173.1432" y2="68.1255">
					<stop  offset="0.0245" style="stop-color:#FFFFFF"/>
					<stop  offset="0.9807" style="stop-color:#FFFFFF;stop-opacity:0"/>
				</linearGradient>
				<polygon class="st13" points="47.4,116.19 64.39,125.86 47.51,155.1 47.48,146.45 56.86,130.21 47.42,124.83 				"/>
			</g>
			<g>
				<linearGradient id="SVGID_7_" gradientUnits="userSpaceOnUse" x1="-19.6334" y1="171.0486" x2="172.8783" y2="67.6331">
					<stop  offset="0.0245" style="stop-color:#FFFFFF"/>
					<stop  offset="0.9807" style="stop-color:#FFFFFF;stop-opacity:0"/>
				</linearGradient>
				<polygon class="st14" points="63.2,107.07 80.19,116.74 63.31,145.97 63.29,137.32 72.66,121.08 63.23,115.71 				"/>
			</g>
			<g>
				<linearGradient id="SVGID_8_" gradientUnits="userSpaceOnUse" x1="-19.898" y1="170.5561" x2="172.6136" y2="67.1406">
					<stop  offset="0.0245" style="stop-color:#FFFFFF"/>
					<stop  offset="0.9807" style="stop-color:#FFFFFF;stop-opacity:0"/>
				</linearGradient>
				<polygon class="st15" points="79.01,97.94 95.99,107.62 79.12,136.85 79.09,128.2 88.46,111.96 79.03,106.58 				"/>
			</g>
			<g>
				<linearGradient id="SVGID_9_" gradientUnits="userSpaceOnUse" x1="-20.1628" y1="170.064" x2="172.3494" y2="66.6482">
					<stop  offset="0.0245" style="stop-color:#FFFFFF"/>
					<stop  offset="0.9807" style="stop-color:#FFFFFF;stop-opacity:0"/>
				</linearGradient>
				<polygon class="st16" points="94.8,88.82 111.79,98.49 94.92,127.73 94.89,119.08 104.27,102.84 94.83,97.46 				"/>
			</g>
			<g>
				<linearGradient id="SVGID_10_" gradientUnits="userSpaceOnUse" x1="-20.692" y1="169.0792" x2="171.8202" y2="65.6634">
					<stop  offset="0.0245" style="stop-color:#FFFFFF"/>
					<stop  offset="0.9807" style="stop-color:#FFFFFF;stop-opacity:0"/>
				</linearGradient>
				<polygon class="st17" points="126.41,70.58 143.4,80.25 126.52,109.48 126.49,100.83 135.87,84.59 126.43,79.22 				"/>
			</g>
			<g>
				<linearGradient id="SVGID_11_" gradientUnits="userSpaceOnUse" x1="-20.4268" y1="169.5711" x2="172.0844" y2="66.1558">
					<stop  offset="0.0245" style="stop-color:#FFFFFF"/>
					<stop  offset="0.9807" style="stop-color:#FFFFFF;stop-opacity:0"/>
				</linearGradient>
				<polygon class="st18" points="110.61,79.7 127.59,89.37 110.72,118.6 110.7,109.95 120.07,93.71 110.64,88.33 				"/>
			</g>
			<g>
				<linearGradient id="SVGID_12_" gradientUnits="userSpaceOnUse" x1="-20.9563" y1="168.5865" x2="171.5555" y2="65.1709">
					<stop  offset="0.0245" style="stop-color:#FFFFFF"/>
					<stop  offset="0.9807" style="stop-color:#FFFFFF;stop-opacity:0"/>
				</linearGradient>
				<polygon class="st19" points="142.21,61.45 159.19,71.13 142.32,100.36 142.3,91.71 151.67,75.47 142.24,70.09 				"/>
			</g>
		</g>
	</g>
	<g>
		<g>
			<path class="st20" d="M66.8,420.56l41.39-23.89L108,331.85l-9.95,5.74l-0.01-3.65c-0.02-7.08-5.05-9.94-11.21-6.39
				c-6.16,3.56-11.15,12.2-11.13,19.28l0.01,3.65l-9.46,5.39v64.85C66.81,420.51,66.8,420.53,66.8,420.56z M78.31,345.33
				c-0.02-5.42,3.81-12.06,8.53-14.78c4.72-2.72,8.57-0.53,8.59,4.89l0.01,3.65l-17.12,9.89L78.31,345.33z"/>
			<g>
				<g>
					<polygon class="st21" points="66.21,355.91 66.39,420.67 78.45,427.84 78.28,363.08 					"/>
				</g>
			</g>
			<g>
				<g>
					<polygon class="st22" points="108.05,331.91 107.87,396.76 120.13,403.59 120.32,338.73 					"/>
				</g>
			</g>
			<path class="st23" d="M78.27,363.02l0.18,64.82l42.07-24.29l-0.18-64.82l-9.95,5.74l-0.01-3.65c-0.02-7.08-5.05-9.94-11.21-6.39
				c-6.16,3.55-11.15,12.2-11.13,19.28l0.01,3.65L78.27,363.02z M90.65,352.21c-0.02-5.42,3.81-12.06,8.53-14.78
				c4.72-2.72,8.57-0.53,8.59,4.89l0.01,3.65l-17.12,9.89L90.65,352.21z"/>
		</g>
		<g>
			<path class="st24" d="M101.72,442.31l41.39-23.89l-0.18-64.82l-9.95,5.74l-0.01-3.65c-0.02-7.08-5.05-9.94-11.21-6.39
				c-6.16,3.55-11.15,12.2-11.13,19.28l0.01,3.65l-9.46,5.39v64.85C101.74,442.25,101.73,442.28,101.72,442.31z M113.24,367.08
				c-0.02-5.42,3.81-12.06,8.53-14.78c4.72-2.72,8.57-0.53,8.59,4.89l0.01,3.65l-17.12,9.89L113.24,367.08z"/>
			<g>
				<g>
					<polygon class="st25" points="101.14,377.66 101.32,442.42 113.38,449.59 113.21,384.82 					"/>
				</g>
			</g>
			<g>
				<g>
					<polygon class="st26" points="142.98,353.65 142.79,418.51 155.06,425.33 155.25,360.48 					"/>
				</g>
			</g>
			<path class="st7" d="M113.2,384.77l0.18,64.82l42.07-24.29l-0.18-64.82l-9.95,5.74l-0.01-3.65c-0.02-7.08-5.05-9.94-11.21-6.39
				c-6.16,3.55-11.15,12.2-11.13,19.28l0.01,3.65L113.2,384.77z M125.58,373.96c-0.02-5.42,3.81-12.06,8.53-14.78
				c4.72-2.72,8.57-0.53,8.59,4.89l0.01,3.65l-17.12,9.89L125.58,373.96z"/>
		</g>
	</g>
	<g>
		<g class="st9">
			<path class="st2" d="M427.49,51.46c2.08,1.2,3.75,4.1,3.74,6.48c-0.01,2.38-1.69,3.34-3.77,2.15c-2.07-1.2-3.75-4.1-3.74-6.48
				C423.73,51.23,425.42,50.27,427.49,51.46z"/>
		</g>
		<g class="st27">
			<path class="st2" d="M405.98,87.46c2.08,1.2,3.75,4.1,3.74,6.48c-0.01,2.38-1.69,3.34-3.77,2.15c-2.07-1.2-3.75-4.1-3.74-6.48
				C402.22,87.22,403.91,86.26,405.98,87.46z"/>
		</g>
		<g class="st28">
			<path class="st2" d="M387.38,36.71c2.07,1.2,3.75,4.1,3.74,6.48c-0.01,2.38-1.69,3.34-3.77,2.15c-2.07-1.2-3.75-4.1-3.74-6.48
				C383.61,36.47,385.3,35.51,387.38,36.71z"/>
		</g>
		<g class="st28">
			<path class="st2" d="M413.23,0.52c2.07,1.2,3.75,4.1,3.74,6.48c-0.01,2.38-1.69,3.34-3.77,2.15c-2.07-1.2-3.75-4.1-3.74-6.48
				C409.47,0.28,411.16-0.68,413.23,0.52z"/>
		</g>
		<g class="st28">
			<path class="st2" d="M417.74,161.21c2.07,1.2,3.75,4.1,3.74,6.48c-0.01,2.38-1.69,3.34-3.77,2.15c-2.07-1.2-3.75-4.1-3.74-6.48
				C413.98,160.97,415.66,160.01,417.74,161.21z"/>
		</g>
		<g class="st9">
			<path class="st2" d="M357.06,50.7c2.08,1.2,3.75,4.1,3.74,6.48c-0.01,2.38-1.69,3.34-3.77,2.15c-2.07-1.2-3.75-4.1-3.74-6.48
				C353.3,50.46,354.99,49.5,357.06,50.7z"/>
		</g>
		<g class="st9">
			<path class="st2" d="M436.08,121.77c2.07,1.2,3.75,4.1,3.74,6.48c-0.01,2.38-1.69,3.34-3.77,2.15c-2.07-1.2-3.75-4.1-3.74-6.48
				C432.32,121.53,434.01,120.57,436.08,121.77z"/>
		</g>
		<g class="st9">
			<path class="st2" d="M312.91,20.07c2.08,1.2,3.75,4.1,3.74,6.48c-0.01,2.38-1.69,3.34-3.77,2.15c-2.07-1.2-3.75-4.1-3.74-6.48
				C309.15,19.84,310.84,18.88,312.91,20.07z"/>
		</g>
	</g>
	<g>
		<linearGradient id="SVGID_13_" gradientUnits="userSpaceOnUse" x1="302.9668" y1="227.3768" x2="406.8504" y2="227.3768">
			<stop  offset="0.0245" style="stop-color:#FFFFFF"/>
			<stop  offset="0.9807" style="stop-color:#FFFFFF;stop-opacity:0"/>
		</linearGradient>
		<path class="st29" d="M397.48,123.16L397.48,123.16c0-0.26,0-0.59-0.01-0.8c-0.01-0.29-0.02-0.57-0.04-0.86
			c-0.02-0.29-0.04-0.58-0.07-0.87c-0.03-0.29-0.06-0.58-0.1-0.87c-0.04-0.3-0.08-0.6-0.13-0.9c-0.05-0.3-0.1-0.6-0.16-0.9
			c-0.06-0.31-0.12-0.62-0.19-0.93c-0.07-0.31-0.14-0.62-0.22-0.93c-0.08-0.32-0.16-0.63-0.25-0.95c-0.09-0.31-0.18-0.63-0.28-0.94
			c-0.09-0.31-0.19-0.62-0.3-0.92c-0.1-0.3-0.21-0.61-0.32-0.91c-0.11-0.29-0.22-0.58-0.33-0.87c-0.11-0.29-0.23-0.58-0.35-0.87
			c-0.12-0.28-0.24-0.57-0.36-0.85c-0.13-0.29-0.26-0.57-0.39-0.86c-0.15-0.32-0.3-0.63-0.46-0.94c-0.18-0.36-0.36-0.72-0.55-1.07
			c-0.28-0.53-0.58-1.05-0.88-1.57c-0.42-0.72-0.86-1.42-1.32-2.11c-0.37-0.55-0.74-1.08-1.13-1.61c-0.26-0.35-0.52-0.7-0.79-1.04
			c-0.23-0.29-0.46-0.57-0.69-0.85c-0.23-0.27-0.46-0.54-0.69-0.81c-0.23-0.26-0.46-0.52-0.69-0.77c-0.24-0.26-0.48-0.51-0.73-0.77
			c-0.25-0.25-0.5-0.5-0.75-0.74c-0.26-0.25-0.52-0.49-0.78-0.73c-0.26-0.24-0.53-0.47-0.79-0.69c-0.26-0.22-0.53-0.44-0.79-0.65
			c-0.26-0.2-0.52-0.4-0.78-0.6c-0.26-0.19-0.52-0.37-0.78-0.55c-0.25-0.17-0.5-0.34-0.76-0.5c-0.25-0.16-0.5-0.31-0.76-0.46
			c-0.06-0.03-0.12-0.07-0.18-0.1l-99.95-57.71c-0.19-0.11-0.38-0.22-0.57-0.32c-0.24-0.13-0.49-0.26-0.73-0.38
			c-0.16-0.08-0.31-0.15-0.47-0.22c-0.04-0.02-0.07-0.04-0.11-0.05c-0.05-0.02-0.09-0.05-0.14-0.07c-0.24-0.11-0.48-0.21-0.71-0.3
			c-0.24-0.1-0.48-0.19-0.72-0.27c-0.04-0.01-0.08-0.03-0.12-0.04c-0.04-0.01-0.07-0.02-0.11-0.04c-0.16-0.05-0.32-0.11-0.48-0.16
			c-0.25-0.07-0.49-0.14-0.74-0.2c-0.12-0.03-0.23-0.05-0.35-0.08c-0.05-0.01-0.1-0.02-0.15-0.03c-0.08-0.02-0.15-0.04-0.23-0.05
			c-0.26-0.05-0.52-0.09-0.78-0.13l-0.03,0.02h0l0.03-0.02c-0.16-0.02-0.31-0.03-0.47-0.05c-0.05-0.01-0.11-0.01-0.16-0.02
			c-0.05,0-0.11-0.01-0.16-0.02c-0.28-0.02-0.56-0.03-0.84-0.03c-0.12,0-0.24,0.01-0.36,0.02c-0.09,0-0.19,0.01-0.28,0.01
			c-0.1,0.01-0.19,0-0.29,0.01c-0.35,0.03-0.69,0.08-1.03,0.15c-0.01,0-0.01,0-0.02,0.01c-0.07,0.02-0.14,0.04-0.22,0.06
			c-0.34,0.08-0.69,0.16-1.01,0.28c-0.5,0.18-0.99,0.4-1.44,0.67l-5.82,3.38c0.01-0.01,0.02-0.01,0.03-0.01
			c-3.22,1.85-5.22,5.81-5.23,11.45l-0.8,283.36c-0.03,11.32,7.93,25.11,17.78,30.79l99.95,57.71c5.27,3.04,10,3.13,13.27,0.84
			c-0.19,0.14-0.38,0.29-0.58,0.4l5.82-3.38c0.36-0.21,0.7-0.45,1.03-0.72c0.1-0.08,0.19-0.17,0.29-0.25
			c0.23-0.2,0.45-0.42,0.67-0.65c0.09-0.1,0.19-0.2,0.27-0.3c0.24-0.29,0.47-0.59,0.69-0.91c0.04-0.05,0.08-0.1,0.11-0.16
			c0.01-0.01,0.02-0.02,0.02-0.03c0.24-0.38,0.47-0.79,0.67-1.22c0.01-0.01,0.01-0.03,0.02-0.05c0.02-0.04,0.04-0.09,0.06-0.14
			c0.12-0.27,0.24-0.54,0.35-0.83c0.05-0.14,0.1-0.3,0.15-0.44c0.03-0.09,0.06-0.17,0.09-0.26c0.02-0.08,0.05-0.15,0.08-0.23
			c0.09-0.3,0.17-0.6,0.24-0.91c0.03-0.11,0.04-0.22,0.07-0.34c0.01-0.07,0.03-0.14,0.04-0.22c0.02-0.11,0.05-0.21,0.06-0.32
			c0.05-0.28,0.09-0.56,0.13-0.85c0.02-0.16,0.03-0.32,0.05-0.49c0.01-0.06,0.01-0.11,0.02-0.17c0.01-0.07,0.02-0.13,0.02-0.2
			c0.02-0.28,0.04-0.56,0.05-0.84c0.01-0.22,0.01-0.57,0.02-0.86l0,0l0,0c0-0.02,0-0.03,0-0.05l0.8-283.16l0,0c0-0.02,0-0.06,0-0.08
			L397.48,123.16z M377.31,418.11c0.02,0,0.04,0,0.06,0.01l0,0C377.35,418.11,377.33,418.11,377.31,418.11z M381.02,413.41
			L381.02,413.41L381.02,413.41L381.02,413.41z M381.13,418.2C381.13,418.2,381.13,418.2,381.13,418.2L381.13,418.2
			C381.13,418.2,381.13,418.2,381.13,418.2z M383.66,410.13c-0.03,0.07-0.06,0.14-0.09,0.22
			C383.6,410.27,383.64,410.2,383.66,410.13C383.66,410.12,383.66,410.12,383.66,410.13z"/>
		<g>
			<g>
				<g class="st5">
					<g class="st5">
						<defs>
							<path id="SVGID_14_" class="st5" d="M369.2,428.31l-5.82,3.38c3.2-1.86,5.19-5.82,5.2-11.44l5.82-3.38
								C374.39,422.49,372.4,426.44,369.2,428.31z"/>
						</defs>
						<clipPath id="SVGID_15_">
							<use xlink:href="#SVGID_14_"  style="overflow:visible;"/>
						</clipPath>
						<path class="st30" d="M368.58,420.25l5.82-3.38c0,0.02,0,0.03,0,0.05l-5.82,3.38C368.58,420.28,368.58,420.27,368.58,420.25"
							/>
					</g>
					<path class="st31" d="M238.97,47.15l5.82-3.38c0.46-0.27,0.94-0.49,1.44-0.67l-5.82,3.38
						C239.91,46.66,239.43,46.88,238.97,47.15"/>
					<g>
						<linearGradient id="SVGID_16_" gradientUnits="userSpaceOnUse" x1="301.1778" y1="120.7813" x2="301.1778" y2="433.6802">
							<stop  offset="0" style="stop-color:#3EB2FA"/>
							<stop  offset="0.1616" style="stop-color:#3FAEFA"/>
							<stop  offset="0.3142" style="stop-color:#42A2FA"/>
							<stop  offset="0.4633" style="stop-color:#478FFA"/>
							<stop  offset="0.6103" style="stop-color:#4F74FB"/>
							<stop  offset="0.7557" style="stop-color:#5852FB"/>
							<stop  offset="0.898" style="stop-color:#6428FC"/>
							<stop  offset="0.9572" style="stop-color:#6914FC"/>
						</linearGradient>
						<path class="st32" d="M351.59,113.58c6.25,3.61,11.31,12.36,11.28,19.55l-0.8,283.36c-0.02,7.18-5.11,10.07-11.36,6.46
							l-99.95-57.7c-6.25-3.61-11.3-12.35-11.28-19.53l0.8-283.36c0.02-7.18,5.1-10.09,11.35-6.48l12.44,7.18
							c1.64,0.95,2.98,3.26,2.97,5.14l-0.01,3.06c-0.01,4.28,3,9.49,6.72,11.65l55.62,32.11c3.73,2.15,6.76,0.42,6.77-3.86
							l0.01-3.06c0.01-1.89,1.34-2.66,2.99-1.7L351.59,113.58z"/>
					</g>
					<g>
						<path d="M351.6,109.84c8.04,4.64,14.56,15.93,14.53,25.17l-0.8,283.36c-0.03,9.24-6.59,12.98-14.63,8.33L250.75,369
							c-8.04-4.64-14.56-15.93-14.53-25.17l0.8-283.36c0.03-9.24,6.59-12.98,14.63-8.34L351.6,109.84z M362.07,416.49l0.8-283.36
							c0.02-7.18-5.03-15.94-11.28-19.55l-12.44-7.18c-1.65-0.95-2.98-0.18-2.99,1.7l-0.01,3.06c-0.01,4.28-3.04,6.01-6.77,3.86
							l-55.62-32.11c-3.73-2.15-6.74-7.36-6.72-11.65l0.01-3.06c0.01-1.89-1.33-4.2-2.97-5.15l-12.44-7.18
							c-6.25-3.61-11.33-0.71-11.35,6.48l-0.8,283.36c-0.02,7.18,5.03,15.93,11.28,19.53l99.95,57.71
							C356.96,426.56,362.05,423.67,362.07,416.49"/>
					</g>
					<g>
						<path class="st33" d="M351.61,106.09c9.85,5.69,17.81,19.47,17.78,30.79l-0.8,283.36c-0.03,11.32-8.04,15.89-17.89,10.2
							l-99.95-57.71c-9.85-5.69-17.81-19.47-17.78-30.79l0.8-283.36c0.03-11.32,8.04-15.88,17.89-10.2L351.61,106.09z
							 M365.33,418.37l0.8-283.36c0.03-9.24-6.49-20.53-14.53-25.17l-99.95-57.71c-8.04-4.64-14.6-0.9-14.63,8.33l-0.8,283.36
							c-0.03,9.24,6.49,20.53,14.53,25.17l99.95,57.71C358.74,431.34,365.3,427.6,365.33,418.37"/>
					</g>
					<path class="st34" d="M375.21,133.5L375.21,133.5c0-0.26,0-0.59-0.01-0.8c-0.01-0.29-0.02-0.57-0.04-0.86
						c-0.02-0.29-0.04-0.58-0.07-0.87c-0.03-0.29-0.06-0.58-0.1-0.87c-0.04-0.3-0.08-0.6-0.13-0.9c-0.05-0.3-0.1-0.6-0.16-0.9
						c-0.06-0.31-0.12-0.62-0.19-0.93c-0.07-0.31-0.14-0.62-0.22-0.93c-0.08-0.32-0.16-0.63-0.25-0.95
						c-0.09-0.31-0.18-0.63-0.28-0.94c-0.09-0.31-0.19-0.62-0.3-0.92c-0.1-0.3-0.21-0.61-0.32-0.91c-0.11-0.29-0.22-0.58-0.33-0.87
						c-0.11-0.29-0.23-0.58-0.35-0.87c-0.12-0.28-0.24-0.57-0.36-0.85c-0.13-0.29-0.26-0.57-0.39-0.86
						c-0.15-0.32-0.3-0.63-0.46-0.94c-0.18-0.36-0.36-0.72-0.55-1.07c-0.28-0.53-0.58-1.05-0.88-1.57
						c-0.42-0.72-0.86-1.42-1.32-2.11c-0.37-0.55-0.74-1.08-1.13-1.61c-0.26-0.35-0.52-0.7-0.79-1.04
						c-0.23-0.29-0.46-0.57-0.69-0.85c-0.23-0.27-0.46-0.54-0.69-0.81c-0.23-0.26-0.46-0.52-0.69-0.77
						c-0.24-0.26-0.48-0.51-0.73-0.77c-0.25-0.25-0.5-0.5-0.75-0.74c-0.26-0.25-0.52-0.49-0.78-0.73c-0.26-0.24-0.53-0.47-0.79-0.69
						c-0.26-0.22-0.53-0.44-0.79-0.65c-0.26-0.2-0.52-0.4-0.78-0.6c-0.26-0.19-0.52-0.37-0.78-0.55c-0.25-0.17-0.5-0.34-0.76-0.5
						c-0.25-0.16-0.5-0.31-0.76-0.46c-0.06-0.03-0.12-0.07-0.18-0.1L257.48,45c-0.19-0.11-0.38-0.22-0.57-0.32
						c-0.24-0.13-0.49-0.26-0.73-0.38c-0.16-0.08-0.31-0.15-0.47-0.22c-0.04-0.02-0.07-0.04-0.11-0.05
						c-0.05-0.02-0.09-0.05-0.14-0.07c-0.24-0.11-0.48-0.21-0.71-0.3c-0.24-0.1-0.48-0.19-0.72-0.27c-0.04-0.01-0.08-0.03-0.12-0.04
						c-0.04-0.01-0.07-0.02-0.11-0.04c-0.16-0.05-0.32-0.11-0.48-0.16c-0.25-0.07-0.49-0.14-0.74-0.2
						c-0.12-0.03-0.23-0.05-0.35-0.08c-0.05-0.01-0.1-0.02-0.15-0.03c-0.08-0.02-0.15-0.04-0.23-0.05
						c-0.26-0.05-0.52-0.09-0.78-0.13l-0.03,0.02h0l0.03-0.02c-0.16-0.02-0.31-0.03-0.47-0.05c-0.05-0.01-0.11-0.01-0.16-0.02
						c-0.05,0-0.11-0.01-0.16-0.02c-0.28-0.02-0.56-0.03-0.84-0.03c-0.12,0-0.24,0.01-0.36,0.02c-0.09,0-0.19,0.01-0.28,0.01
						c-0.1,0.01-0.19,0-0.29,0.01c-0.35,0.03-0.69,0.08-1.03,0.15c-0.01,0-0.01,0-0.02,0.01c-0.07,0.02-0.14,0.04-0.22,0.06
						c-0.34,0.08-0.69,0.16-1.01,0.28l-0.05,0.03c-0.49,0.18-0.96,0.38-1.4,0.64l-5.82,3.38c0.75-0.44,1.58-0.74,2.45-0.95
						c0.07-0.02,0.14-0.05,0.22-0.06c0.43-0.09,0.88-0.14,1.33-0.17c0.09-0.01,0.18-0.01,0.28-0.01c0.44-0.02,0.89-0.01,1.36,0.03
						c0.05,0,0.11,0.01,0.16,0.02c0.48,0.05,0.98,0.12,1.48,0.23c0.05,0.01,0.1,0.02,0.15,0.03c0.52,0.12,1.04,0.26,1.58,0.44
						c0.03,0.01,0.07,0.02,0.1,0.03c0.56,0.19,1.12,0.42,1.7,0.68c0.04,0.02,0.07,0.04,0.11,0.05c0.58,0.27,1.17,0.57,1.77,0.92
						l99.95,57.71c0.06,0.03,0.12,0.07,0.18,0.1c0.25,0.15,0.5,0.3,0.75,0.46c0.25,0.16,0.51,0.33,0.76,0.5
						c0.26,0.18,0.52,0.36,0.78,0.55c0.26,0.19,0.52,0.39,0.78,0.6c0.27,0.21,0.53,0.43,0.79,0.65c0.27,0.22,0.53,0.46,0.79,0.69
						c0.26,0.24,0.52,0.48,0.78,0.73c0.25,0.24,0.5,0.49,0.75,0.74c0.25,0.25,0.49,0.51,0.73,0.76c0.23,0.25,0.47,0.51,0.69,0.77
						l0,0c0.23,0.26,0.46,0.53,0.69,0.81c0.23,0.28,0.46,0.56,0.69,0.85c0.27,0.34,0.53,0.69,0.79,1.04
						c0.39,0.53,0.76,1.06,1.13,1.61c0.46,0.69,0.9,1.39,1.32,2.11c0.3,0.52,0.6,1.04,0.88,1.57c0.19,0.35,0.37,0.71,0.55,1.07
						c0.16,0.31,0.31,0.63,0.46,0.94c0.13,0.29,0.26,0.57,0.39,0.86c0.12,0.28,0.25,0.57,0.36,0.85c0.12,0.29,0.24,0.58,0.35,0.87
						c0.11,0.29,0.22,0.58,0.33,0.87c0.11,0.3,0.22,0.61,0.32,0.91c0.1,0.31,0.2,0.61,0.3,0.92c0.1,0.31,0.19,0.63,0.28,0.94
						c0.09,0.32,0.17,0.63,0.25,0.95c0.08,0.31,0.15,0.62,0.22,0.93c0.07,0.31,0.13,0.62,0.19,0.93c0.06,0.3,0.11,0.6,0.16,0.9
						c0.05,0.3,0.09,0.6,0.13,0.9c0.04,0.29,0.07,0.58,0.1,0.87c0.03,0.29,0.05,0.58,0.07,0.87c0.02,0.29,0.03,0.58,0.04,0.86
						c0.01,0.22,0.01,0.6,0.01,0.88l-0.8,282.88l0,0c0,0.29-0.01,1.03-0.02,1.31c-0.01,0.29-0.03,0.57-0.05,0.84
						c-0.02,0.29-0.05,0.58-0.09,0.86c-0.04,0.29-0.08,0.57-0.13,0.85c-0.05,0.3-0.11,0.59-0.18,0.87
						c-0.07,0.31-0.15,0.62-0.24,0.91c-0.09,0.32-0.2,0.64-0.31,0.94c-0.13,0.35-0.27,0.69-0.43,1.01c-0.2,0.43-0.43,0.84-0.67,1.22
						c-0.83,1.29-1.87,2.31-3.09,3.02l5.82-3.38c1.22-0.71,2.26-1.72,3.09-3.02c0.24-0.38,0.47-0.79,0.67-1.22
						c0.15-0.32,0.3-0.66,0.43-1.01c0.11-0.3,0.22-0.62,0.31-0.94c0.09-0.3,0.17-0.6,0.24-0.91c0.07-0.28,0.12-0.58,0.18-0.87
						c0.05-0.28,0.09-0.56,0.13-0.85c0.04-0.28,0.06-0.57,0.09-0.86c0.02-0.28,0.04-0.56,0.05-0.84c0.01-0.23,0.02-0.62,0.02-0.91
						l0,0l0.8-283.16l0,0c0-0.02,0-0.06,0-0.08L375.21,133.5z"/>
				</g>
			</g>
			<g>
				<linearGradient id="SVGID_17_" gradientUnits="userSpaceOnUse" x1="334.1722" y1="149.4311" x2="273.5665" y2="264.9218">
					<stop  offset="0.3069" style="stop-color:#3EB2FA"/>
					<stop  offset="1" style="stop-color:#3EB2FA;stop-opacity:0"/>
				</linearGradient>
				<polygon class="st35" points="252.97,102.8 252.75,259.15 351.76,317.27 351.99,160.93 				"/>
				<g>
					<g>
						<g>
							<polygon class="st2" points="253.02,99.42 194.83,150.26 207.51,157.68 265.68,106.97 							"/>
							<path class="st36" d="M194.83,150.26v6.05c0,0-0.44,6.58,6.1,9.03c7.27,2.73,6.58-7.66,6.58-7.66L194.83,150.26z"/>
							<path class="st36" d="M265.68,106.93l-12.66-7.55c0,0,0-3.83,0-3.87l12.66,7.55C265.68,103.07,265.66,106.95,265.68,106.93z"
								/>
						</g>
						<g>
							<polygon class="st7" points="265.71,106.97 207.52,157.81 220.2,165.24 278.36,114.52 							"/>
							<path class="st37" d="M207.52,157.81v6.05c0,0-0.44,6.58,6.1,9.03c7.27,2.73,6.58-7.66,6.58-7.66L207.52,157.81z"/>
							<path class="st37" d="M278.36,114.48l-12.66-7.55c0,0,0-3.83,0-3.87l12.66,7.55C278.36,110.62,278.35,114.5,278.36,114.48z"
								/>
						</g>
					</g>
					<g>
						<g>
							<polygon class="st2" points="278.34,114.49 220.15,165.33 232.83,172.75 291,122.04 							"/>
							<path class="st36" d="M220.15,165.33v6.05c0,0-0.44,6.58,6.1,9.03c7.27,2.73,6.58-7.66,6.58-7.66L220.15,165.33z"/>
							<path class="st36" d="M291,122l-12.66-7.55c0,0,0-3.83,0-3.87l12.66,7.55C291,118.14,290.98,122.02,291,122z"/>
						</g>
						<g>
							<polygon class="st7" points="290.98,122.02 232.79,172.86 245.48,180.29 303.64,129.57 							"/>
							<path class="st37" d="M232.79,172.86v6.05c0,0-0.44,6.58,6.1,9.03c7.27,2.73,6.58-7.66,6.58-7.66L232.79,172.86z"/>
							<path class="st37" d="M303.64,129.54l-12.66-7.55c0,0,0-3.83,0-3.87l12.66,7.55C303.64,125.67,303.62,129.56,303.64,129.54z"
								/>
						</g>
					</g>
					<g>
						<g>
							<polygon class="st2" points="303.62,129.58 245.43,180.42 258.11,187.85 316.28,137.14 							"/>
							<path class="st36" d="M245.43,180.42v6.05c0,0-0.44,6.58,6.1,9.03c7.27,2.73,6.58-7.66,6.58-7.66L245.43,180.42z"/>
							<path class="st36" d="M316.28,137.1l-12.66-7.55c0,0,0-3.83,0-3.87l12.66,7.55C316.28,133.23,316.26,137.12,316.28,137.1z"/>
						</g>
						<g>
							<polygon class="st7" points="316.3,137.15 258.11,187.99 270.79,195.42 328.96,144.71 							"/>
							<path class="st37" d="M258.11,187.99v6.05c0,0-0.44,6.58,6.1,9.03c7.27,2.73,6.58-7.66,6.58-7.66L258.11,187.99z"/>
							<path class="st37" d="M328.96,144.67l-12.66-7.55c0,0,0-3.83,0-3.87l12.66,7.55C328.96,140.8,328.94,144.69,328.96,144.67z"
								/>
						</g>
					</g>
					<g>
						<g>
							<polygon class="st2" points="328.97,144.65 270.78,195.49 283.46,202.91 341.63,152.2 							"/>
							<path class="st36" d="M270.78,195.49v6.05c0,0-0.44,6.58,6.1,9.03c7.27,2.73,6.58-7.66,6.58-7.66L270.78,195.49z"/>
							<path class="st36" d="M341.63,152.16l-12.66-7.55c0,0,0-3.83,0-3.87l12.66,7.55C341.63,148.3,341.61,152.18,341.63,152.16z"
								/>
						</g>
						<g>
							<polygon class="st7" points="341.58,152.15 283.39,202.99 296.07,210.41 354.24,159.7 							"/>
							<path class="st37" d="M283.39,202.99v6.05c0,0-0.44,6.58,6.1,9.03c7.27,2.73,6.58-7.66,6.58-7.66L283.39,202.99z"/>
							<path class="st37" d="M354.24,159.66l-12.66-7.55c0,0,0-3.83,0-3.87l12.66,7.55C354.24,155.8,354.22,159.68,354.24,159.66z"
								/>
						</g>
					</g>
				</g>
			</g>
		</g>
	</g>
	<g>
		<g class="st38">
			<path class="st2" d="M413.36,278.77c3.59,2.07,6.48,7.09,6.47,11.21l-0.06,19.45c-0.01,4.12-2.93,5.78-6.51,3.71l-110.61-63.86
				c-3.59-2.07-6.48-7.09-6.47-11.21l0.06-19.45c0.01-4.12,2.93-5.78,6.51-3.71L413.36,278.77z"/>
		</g>
		<g>
			<g>
				<path class="st2" d="M407.66,288.32c3.59,2.07,6.48,7.09,6.47,11.21l-0.06,19.45c-0.01,4.12-2.93,5.78-6.51,3.71l-110.61-63.86
					c-3.59-2.07-6.48-7.09-6.47-11.21l0.06-19.45c0.01-4.12,2.93-5.78,6.51-3.71L407.66,288.32z"/>
			</g>
			<g>
				<g>
					<path class="st39" d="M388.35,295.56l0,1.19c0.71,0.49,1.41,1.11,1.97,1.79l-0.7,1.5c-0.67-0.77-1.3-1.33-1.9-1.68
						c-0.67-0.39-0.88-0.29-0.89-0.02c0,0.95,3.76,2.33,3.75,5.2c0,1.21-0.76,1.83-2.26,1.25l0,1.25l-1.37-0.79l0-1.19
						c-0.97-0.63-1.92-1.47-2.5-2.22l0.75-1.49c0.64,0.8,1.49,1.57,2.24,2.01c0.65,0.38,0.88,0.36,0.88,0.09
						c0-0.98-3.76-2.37-3.75-5.27c0-1.26,0.8-1.87,2.39-1.2l0-1.21L388.35,295.56z"/>
				</g>
				<g>
					<polygon class="st39" points="394.15,300.24 394.13,308.06 391.83,306.74 391.85,300.91 390.68,300.24 390.69,298.24 					"/>
				</g>
				<g>
					<path class="st39" d="M398.06,302.33c1.8,1.04,3.07,3.27,3.07,5.86c-0.01,2.59-1.29,3.35-3.09,2.31
						c-1.8-1.04-3.07-3.27-3.07-5.86C394.98,302.04,396.26,301.29,398.06,302.33z M398.04,308.39c0.45,0.26,0.78-0.02,0.79-1.52
						c0-1.51-0.33-2.17-0.78-2.42c-0.45-0.26-0.77,0.02-0.78,1.53C397.27,307.47,397.6,308.13,398.04,308.39"/>
				</g>
				<g>
					<path class="st39" d="M404.79,306.21c1.8,1.04,3.07,3.27,3.07,5.86c-0.01,2.59-1.29,3.35-3.09,2.31
						c-1.8-1.04-3.07-3.27-3.07-5.86C401.7,305.93,402.99,305.17,404.79,306.21z M404.77,312.27c0.45,0.26,0.78-0.02,0.79-1.52
						c0-1.51-0.33-2.17-0.78-2.42c-0.45-0.26-0.77,0.02-0.78,1.53C404,311.35,404.32,312.01,404.77,312.27"/>
				</g>
				<g>
					<polygon class="st40" points="370.25,286.25 370.23,294.36 298.55,252.98 298.57,244.86 					"/>
				</g>
				<g>
					<polygon class="st39" points="326.44,248.62 298.61,232.55 298.59,240.65 326.44,256.74 					"/>
				</g>
			</g>
		</g>
	</g>
	<g>
		<g>
			<linearGradient id="SVGID_18_" gradientUnits="userSpaceOnUse" x1="397.9587" y1="219.8356" x2="397.9587" y2="262.7643">
				<stop  offset="0" style="stop-color:#3EB2FA"/>
				<stop  offset="0.1616" style="stop-color:#3FAEFA"/>
				<stop  offset="0.3142" style="stop-color:#42A2FA"/>
				<stop  offset="0.4633" style="stop-color:#478FFA"/>
				<stop  offset="0.6103" style="stop-color:#4F74FB"/>
				<stop  offset="0.7557" style="stop-color:#5852FB"/>
				<stop  offset="0.898" style="stop-color:#6428FC"/>
				<stop  offset="0.9572" style="stop-color:#6914FC"/>
			</linearGradient>
			
				<ellipse transform="matrix(0.8646 -0.5025 0.5025 0.8646 -67.3601 232.6282)" class="st41" cx="397.96" cy="241.3" rx="12.99" ry="22.43"/>
		</g>
		<g>
			<path class="st2" d="M424,221.97c0.79,0.46,1.5,1.92,0.93,2.56L399.21,253c-0.23,0.25-0.58,0.23-0.92,0.03
				c-0.4-0.23-0.8-0.71-1-1.3l-9.13-26.92c-0.4-1.19,0.28-1.7,1.02-1.27c0.27,0.15,0.54,0.43,0.77,0.83l6.38,11.05
				c0.22,0.38,0.5,0.67,0.79,0.84c0.29,0.16,0.57,0.2,0.79,0.08l25.31-14.43C423.46,221.78,423.74,221.82,424,221.97z"/>
		</g>
	</g>
	<g>
		<g>
			<g class="st38">
				<path class="st2" d="M413.36,334.46c3.59,2.07,6.48,7.09,6.47,11.21l-0.06,19.45c-0.01,4.12-2.93,5.78-6.51,3.71l-110.61-63.86
					c-3.59-2.07-6.48-7.09-6.47-11.21l0.06-19.45c0.01-4.12,2.93-5.78,6.51-3.71L413.36,334.46z"/>
			</g>
			<g>
				<g>
					<path class="st2" d="M407.66,344c3.59,2.07,6.48,7.09,6.47,11.21l-0.06,19.45c-0.01,4.12-2.93,5.78-6.51,3.71l-110.61-63.86
						c-3.59-2.07-6.48-7.09-6.47-11.21l0.06-19.45c0.01-4.12,2.93-5.78,6.51-3.71L407.66,344z"/>
				</g>
				<g>
					<g>
						<path class="st39" d="M388.35,351.25l0,1.19c0.71,0.49,1.41,1.11,1.97,1.79l-0.7,1.5c-0.67-0.77-1.3-1.33-1.9-1.68
							c-0.67-0.39-0.88-0.29-0.89-0.02c0,0.95,3.76,2.33,3.75,5.2c0,1.21-0.76,1.83-2.26,1.25l0,1.25l-1.37-0.79l0-1.19
							c-0.97-0.63-1.92-1.47-2.5-2.22l0.75-1.49c0.64,0.8,1.49,1.57,2.24,2.01c0.65,0.38,0.88,0.36,0.88,0.09
							c0-0.98-3.76-2.37-3.75-5.27c0-1.26,0.8-1.87,2.39-1.2l0-1.21L388.35,351.25z"/>
					</g>
					<g>
						<polygon class="st39" points="394.15,355.93 394.13,363.75 391.83,362.42 391.85,356.6 390.68,355.93 390.69,353.93 						"/>
					</g>
					<g>
						<path class="st39" d="M398.06,358.01c1.8,1.04,3.07,3.27,3.07,5.86c-0.01,2.59-1.29,3.35-3.09,2.31
							c-1.8-1.04-3.07-3.27-3.07-5.86C394.98,357.73,396.26,356.97,398.06,358.01z M398.04,364.07c0.45,0.26,0.78-0.02,0.79-1.52
							c0-1.51-0.33-2.17-0.78-2.42c-0.45-0.26-0.77,0.02-0.78,1.53C397.27,363.16,397.6,363.81,398.04,364.07"/>
					</g>
					<g>
						<path class="st39" d="M404.79,361.89c1.8,1.04,3.07,3.27,3.07,5.86c-0.01,2.59-1.29,3.35-3.09,2.31
							c-1.8-1.04-3.07-3.27-3.07-5.86C401.7,361.61,402.99,360.86,404.79,361.89z M404.77,367.95c0.45,0.26,0.78-0.02,0.79-1.52
							c0-1.51-0.33-2.17-0.78-2.42c-0.45-0.26-0.77,0.02-0.78,1.53C404,367.04,404.32,367.69,404.77,367.95"/>
					</g>
					<g>
						<polygon class="st40" points="370.25,341.93 370.23,350.04 298.55,308.66 298.57,300.55 						"/>
					</g>
					<g>
						<polygon class="st39" points="326.44,304.31 298.61,288.24 298.59,296.34 326.44,312.42 						"/>
					</g>
				</g>
			</g>
		</g>
		<g>
			<g class="st9">
				<linearGradient id="SVGID_19_" gradientUnits="userSpaceOnUse" x1="398.5156" y1="417.61" x2="438.2748" y2="457.3692">
					<stop  offset="0.0245" style="stop-color:#FFFFFF"/>
					<stop  offset="0.9807" style="stop-color:#FFFFFF;stop-opacity:0"/>
				</linearGradient>
				<path class="st42" d="M422.6,412.83c1.24,1.54,2,3.49,1.99,5.14l-0.12,41.65c-0.01,2.53-1.8,3.56-4.02,2.28l-20.84-12.03
					c-2.2-1.27-3.99-4.36-3.98-6.9l0.12-41.65c0-1.64,0.77-2.71,2.01-2.82l10.44-0.9c0.62-0.05,1.31,0.14,2,0.54
					c0.69,0.4,1.38,1,1.99,1.76L422.6,412.83z"/>
			</g>
			<g>
				<g>
					<g>
						<path class="st8" d="M409.87,412.44c1.24,1.54,2,3.49,1.99,5.14l-0.12,41.65c-0.01,2.53-1.8,3.56-4.02,2.28l-20.84-12.03
							c-2.2-1.27-3.99-4.36-3.98-6.9l0.12-41.65c0-1.64,0.77-2.71,2.01-2.82l10.44-0.9c0.62-0.05,1.31,0.14,2,0.54
							c0.69,0.4,1.38,1,1.99,1.76L409.87,412.44z M397.45,406.69c1.08,0.62,1.96,0.12,1.97-1.12c0-1.24-0.87-2.76-1.95-3.38
							c-1.09-0.63-1.96-0.12-1.97,1.12C395.49,404.55,396.36,406.06,397.45,406.69"/>
					</g>
					<g>
						<path class="st2" d="M398.86,372.56c0.4,1.11,1.16,2.24,1.96,3.44c1.44,2.13,3.06,4.56,2.42,7c-0.36,1.42-1.52,1.73-2.54,2.02
							c-1.43,0.39-2.31,0.73-2,2.68c0.22,1.37,1.13,2.68,2.09,4.06c1.26,1.8,2.68,3.84,2.53,6.16c-0.13,1.98-1.44,2.36-2.6,2.7
							c-1.13,0.33-2.1,0.62-2.12,2.16l-1.18-0.69c0.03-2.2,1.39-2.6,2.59-2.95c1.09-0.32,2.04-0.59,2.13-1.98
							c0.11-1.61-0.89-3.04-2.06-4.71c-1.05-1.51-2.24-3.22-2.54-5.14c-0.46-2.98,1.09-3.41,2.46-3.79c0.95-0.26,1.84-0.5,2.11-1.5
							c0.42-1.62-0.49-3.1-2.02-5.38c-0.87-1.28-1.76-2.62-2.27-4.05L398.86,372.56z"/>
					</g>
				</g>
				<g>
					<g>
						<polygon class="st2" points="400.94,424.07 402.3,424.86 393.83,434.17 392.47,433.39 						"/>
					</g>
					<g>
						<path class="st2" d="M401.29,430.85c1.71,0.99,2.87,3.22,2.86,5.53c-0.01,2.29-1.17,3.19-2.88,2.2
							c-1.71-0.98-2.85-3.21-2.85-5.51C398.43,430.77,399.58,429.87,401.29,430.85z M401.27,437.43c1.06,0.61,1.74-0.03,1.74-1.7
							c0-1.69-0.67-3.11-1.72-3.72c-1.07-0.62-1.74,0.02-1.74,1.72C399.54,435.43,400.2,436.81,401.27,437.43"/>
					</g>
					<g>
						<path class="st2" d="M396.35,425.18c-0.01,2.32-1.16,3.2-2.87,2.21c-1.72-0.99-2.88-3.21-2.87-5.52
							c0.01-2.31,1.17-3.2,2.89-2.21C395.21,420.64,396.36,422.86,396.35,425.18z M391.76,422.53c0,1.67,0.67,3.09,1.72,3.71
							c1.07,0.62,1.72-0.01,1.73-1.71c0-1.7-0.64-3.09-1.71-3.71C392.44,420.2,391.77,420.85,391.76,422.53"/>
					</g>
				</g>
			</g>
		</g>
	</g>
	<g>
		<g class="st43">
			<path class="st44" d="M334.64,351.78c6.21,3.59,11.23,12.28,11.21,19.41c-0.02,7.15-5.07,10.02-11.29,6.43l-72.45-41.83
				c-6.21-3.59-11.23-12.28-11.21-19.42c0.02-7.14,5.07-10.01,11.29-6.42L334.64,351.78z"/>
		</g>
		<g>
			<g>
				<path class="st7" d="M331.72,360c6.21,3.59,11.23,12.28,11.21,19.41c-0.02,7.15-5.07,10.02-11.29,6.43l-72.45-41.83
					c-6.21-3.59-11.23-12.28-11.21-19.42c0.02-7.14,5.07-10.01,11.29-6.42L331.72,360z"/>
			</g>
			<g>
				<g>
					<path class="st2" d="M262.64,328.86c0.94,0.55,1.91,1.39,2.58,2.31l-0.39,0.83c-0.69-0.91-1.48-1.6-2.19-2.01
						c-1.36-0.79-1.94-0.47-1.94,0.34c-0.01,2.24,4.84,3.64,4.83,7.01c0,1.4-0.99,2.05-3.11,0.83c-1.22-0.7-2.42-1.86-3.06-2.93
						l0.43-0.78c0.6,0.96,1.61,1.99,2.64,2.59c1.38,0.8,1.98,0.53,1.98-0.27c0.01-2.25-4.84-3.63-4.83-7.05
						C259.57,328.31,260.53,327.65,262.64,328.86z"/>
				</g>
				<g>
					<polygon class="st2" points="274.1,335.59 274.08,344.78 272.93,344.12 272.94,340.02 268.34,337.37 268.33,341.46 
						267.19,340.81 267.22,331.61 268.35,332.27 268.34,336.22 272.94,338.88 272.96,334.92 					"/>
				</g>
				<g>
					<path class="st2" d="M280.12,338.95c2.44,1.41,4.24,4.45,4.23,7.16c-0.01,2.71-1.82,3.66-4.26,2.25
						c-2.46-1.42-4.26-4.47-4.25-7.17C275.85,338.5,277.66,337.53,280.12,338.95z M280.09,347.19c1.78,1.03,3.1,0.28,3.11-1.75
						c0.01-2.03-1.31-4.3-3.09-5.33c-1.8-1.04-3.12-0.29-3.13,1.74C276.98,343.89,278.3,346.16,280.09,347.19"/>
				</g>
				<g>
					<path class="st2" d="M289.24,344.32c2.07,1.2,3.33,3.14,3.32,5.13c-0.01,2-1.27,2.47-3.34,1.27l-1.98-1.14l-0.01,2.79
						l-1.15-0.66l0.03-9.2L289.24,344.32z M289.18,349.57c1.46,0.84,2.24,0.54,2.24-0.76c0-1.32-0.77-2.51-2.23-3.36l-1.94-1.12
						l-0.01,4.12L289.18,349.57"/>
				</g>
				<g>
					<polygon class="st2" points="304.54,353.16 304.51,362.35 302.99,361.48 299.02,353.6 299.01,359.18 297.17,358.11 
						297.19,348.92 298.73,349.8 302.69,357.68 302.71,352.1 					"/>
				</g>
				<g>
					<path class="st2" d="M310.32,356.33c2.52,1.45,4.37,4.55,4.36,7.29c-0.01,2.74-1.87,3.68-4.39,2.22
						c-2.53-1.46-4.37-4.55-4.36-7.28C305.93,355.83,307.79,354.87,310.32,356.33z M310.3,364.03c1.43,0.83,2.51,0.26,2.52-1.49
						c0.01-1.75-1.07-3.56-2.5-4.39c-1.43-0.83-2.5-0.25-2.51,1.5C307.8,361.4,308.86,363.21,310.3,364.03"/>
				</g>
				<g>
					<polygon class="st2" points="327.93,366.66 325.28,374.35 323.29,373.2 321.55,365.95 319.72,371.13 317.74,369.99 
						315.13,359.27 317.05,360.38 318.84,367.89 320.75,362.52 322.47,363.51 324.28,371.08 326.16,365.64 					"/>
				</g>
			</g>
		</g>
	</g>
	<g>
		<g>
			
				<linearGradient id="SVGID_20_" gradientUnits="userSpaceOnUse" x1="13.345" y1="-2998.4944" x2="108.681" y2="-2998.4944" gradientTransform="matrix(0.9012 0.0351 -0.117 3.0425 -221.3573 9589.9873)">
				<stop  offset="0.2222" style="stop-color:#FFFFFF"/>
				<stop  offset="0.4038" style="stop-color:#ECEEF8"/>
				<stop  offset="0.769" style="stop-color:#BCC4E5"/>
				<stop  offset="0.9153" style="stop-color:#A7B1DD"/>
			</linearGradient>
			<path class="st45" d="M227.51,470.62c-0.39,10.17-18.93,17.9-43.02,16.99c-24.09-0.95-43.3-9.92-42.91-20.11
				c0.39-10.17,20.24-17.66,44.32-16.73C210,451.67,227.9,460.45,227.51,470.62z"/>
			<g>
				<g>
					<path class="st46" d="M174.7,458.65l1.59,0.94c2.14,1.27,4.83,1.17,6.88-0.24l0.71-0.49c1.55-1.07,2.44-2.87,2.36-4.75l0,0
						l11.85-3.15c0,0,6.05-1.77,7.94,0.76c1.89,2.52-3.15,12.23-16.52,14.12c0,0-2.26,0.32-6.18,4.79
						c-2.65,3.03-9.96,1.89-10.34-2.4c-0.24-2.78-0.17-6.4-0.09-8.6C172.93,458.72,173.92,458.19,174.7,458.65z"/>
					<path class="st47" d="M173.3,448.26l0.41,7.45c0.12,2.16,1.36,4.11,3.28,5.12l0.42,0.22c2,1.06,4.43,0.94,6.31-0.32l0,0
						c1.8-1.2,2.84-3.26,2.74-5.42l-0.44-9.44L173.3,448.26z"/>
				</g>
				<g>
					<path class="st47" d="M191.86,463.38l0.41,7.45c0.12,2.16,1.36,4.11,3.28,5.12l0.42,0.22c2,1.06,4.43,0.94,6.31-0.32l0,0
						c1.8-1.2,2.84-3.26,2.74-5.42l-0.44-9.44L191.86,463.38z"/>
					<path class="st46" d="M193.09,472.66l1.67,0.99c2.25,1.33,5.08,1.24,7.23-0.26l0.74-0.51c1.63-1.13,2.57-3.01,2.49-4.99l0,0
						l12.46-3.31c0,0,6.36-1.86,8.35,0.8c1.99,2.65-3.31,12.86-17.37,14.85c0,0-2.38,0.33-6.5,5.04
						c-2.78,3.18-10.47,1.99-10.87-2.52c-0.26-2.92-0.18-6.73-0.1-9.05C191.23,472.74,192.27,472.18,193.09,472.66z"/>
				</g>
				<path class="st48" d="M168.46,339.54l5.86,45.2c0.32,2.46,0.11,4.95-0.65,7.31c-1.32,4.14-2.57,8.87-2.47,12.76l1.16,44.98
					c0.02,0.85,0.56,1.59,1.35,1.89c2.78,1.03,9.31,3.88,13.94-1.48c0.4-0.46,0.6-1.06,0.62-1.67c0.27-6.63,2.07-46.95,6.99-68.8
					c5.37-23.87,7.96-40.77,2.98-52.11L168.46,339.54z"/>
				<path class="st49" d="M187.28,346.44c-0.27,8.39-0.17,17.63,0.53,27.58c0.79,11.27,2.23,21.57,3.94,30.73
					c-0.68,2-1.35,4.45-1.78,7.29c-0.38,2.47-0.54,4.98-0.47,7.49l1.16,44.98c0.02,0.85,0.56,1.59,1.35,1.89
					c2.78,1.03,9.31,3.88,13.94-1.48c0.4-0.46,0.6-1.07,0.63-1.68c0.27-6.64,2.07-46.95,6.99-68.8c5.37-23.87,7.96-40.77,2.98-52.11
					L187.28,346.44z"/>
				<g>
					<path class="st50" d="M218.75,337.45c0,0-2.26-27.52-0.72-33.03c1.25-4.45,1.44-9.14,0.57-13.68l-2.38-13.38
						c-3.18-11.53-12.51-16.22-12.51-16.22c-7.58-3.75-16.25-11.55-25.18-7.92c-15.02,6.1-9.74,29.03-4.23,39.89
						c2.82,5.56,4.4,12.8,2.44,18.73c-1.88,5.7-6.38,10.02-8.32,15.74c-1.72,5.05-2.13,10.54-1.14,15.78
						c0.87,4.58,4.91,6.71,8.86,8.49l25.05,10.3c1.43,0.59,3.03,0.84,4.67,0.81c2.84-0.05,5.36-1.82,6.37-4.47
						c0.92-2.42,1.77-5.42,2.2-8.93c1.29-0.29,0.28-0.06,1.57-0.35c0.76,1.26,1.67,3.24,2.32,6.05c0.54-1.32,0.85-2.75,0.89-4.21
						l0.07-2.99C219.36,344.5,219.18,340.96,218.75,337.45z"/>
				</g>
				<path class="st47" d="M201.77,262.07c-3.32,0.29-9.77,0.08-12.66-5.26c0,0-0.38-19.83-0.38-19.84c-0.08-4.03,1.94-8,5.26-10.29
					c2.43-1.69,5.6-2.12,8.49-2.23c2.29-0.09,6.43-0.58,8.11,1.33c0.85,0.96,1.79,4.68,1.79,5.97c0,3.13,1.09,6.54,1.09,9.68
					c0,1.53-0.9,6.9-0.89,8.24c0.01,1.03-0.19,2.09-0.73,2.97c-0.44,0.72-1.12,1.27-1.89,1.6c-0.87,0.38-1.7,0.15-2.56,0.38
					c-3.93,1-3.57,5.2-3.57,5.2C203.82,260.99,202.94,261.97,201.77,262.07z"/>
				<g>
					<path class="st51" d="M218.03,304.42L218.03,304.42c1.25-4.45,1.44-9.14,0.57-13.68l-2.38-13.38
						c-0.83-3.02-2.09-5.55-3.48-7.67c-2.34,1.58-4.57,3.31-6.62,5.24c2.38,3.03,3.92,7.12,4.06,13.1
						c0.57,23.68,2.92,64.25-8.13,74.4c1.15,0.36,2.39,0.53,3.66,0.52c2.93-0.02,5.53-1.86,6.56-4.6c0.91-2.4,1.73-5.36,2.15-8.81
						c1.29-0.29,0.28-0.06,1.57-0.35c0.76,1.26,1.67,3.24,2.32,6.06c0.54-1.32,0.85-2.75,0.89-4.21l0.07-2.99
						c0.08-3.54-0.09-7.08-0.53-10.59C218.75,337.45,216.49,309.93,218.03,304.42z"/>
				</g>
				<path class="st47" d="M234.95,297.68l37.58-21.81c0.2-0.11,0.41-0.21,0.62-0.29l10.33-4.06c0.79-0.31,1.68,0.13,1.92,0.95l0,0
					c0.2,0.71-0.16,1.46-0.85,1.74l-5.68,2.27c-0.59,0.24-0.89,0.88-0.72,1.49c0.57,1.96,1.39,6.1-1.15,7.89
					c-1.74,1.23-3.47,2.29-4.75,3.04c-1.27,0.75-2.69,1.21-4.15,1.38l-3.42,0.39c-2.07,0.24-4.02,1.13-5.55,2.55l-16.34,15.62
					L234.95,297.68z"/>
				<path class="st50" d="M205.61,262.38c0,0,10.74,1.59,15.31,8.75c4.05,6.34,15.11,25.65,15.11,25.65l1.89-0.8
					c0,0,6.07,7.06,5.97,12.53l-9.84,5.17c0,0-3.98,3.38-11.14-7.96c-7.16-11.34-16.71-28.04-16.71-28.04
					S198.06,266.76,205.61,262.38z"/>
				<path class="st52" d="M236.5,295.13c0,0,6.5,7.03,7.56,14.32l6.76-4.77c0,0-0.53-10.34-7.96-13.39L236.5,295.13z"/>
				<path class="st7" d="M211.94,228.97c0,0-0.27,6.1-8.49,13.52c-3.99,3.6-5.85,10.81-2.05,22.37c1.01,3.09,1.84,6.12,2.43,9.08
					c2.92,14.78-8.21,29.01-23.27,28.62c-0.88-0.02-1.74-0.1-2.57-0.23c-1.3-0.21-2.79-0.73-4.38-1.48
					c-11.53-5.44-16-19.38-10.55-30.9c2.51-5.29,10.23-11.64,9.09-17.2c-3.38-16.51,3.61-40.03,21.88-38.78
					C214.33,215.38,211.94,228.97,211.94,228.97z"/>
			</g>
		</g>
		<g>
			<path class="st53" d="M205.12,220.66c-1.28-1.9-3.98-2.16-5.65-0.59c-1.23,1.15-2.81,2.61-4.83,4.46
				c-13.92,12.73,0.4,26.45,0.4,26.45c-1.39-6.56,5.37-13.52,5.37-13.52C208.58,229.76,207.36,224.01,205.12,220.66z"/>
		</g>
	</g>
</g>
</svg>
